TITLE ""
FILE "1Q_t_2039-2048.mp3" MP3
  TRACK 01 AUDIO
    TITLE "1Q_t_2039-2048_01"
    INDEX 01 00:00:00
  TRACK 02 AUDIO
    TITLE "1Q_t_2039-2048_02"
    INDEX 01 00:01:18
  TRACK 03 AUDIO
    TITLE "1Q_t_2039-2048_03"
    INDEX 01 00:01:29
  TRACK 04 AUDIO
    TITLE "1Q_t_2039-2048_04"
    INDEX 01 00:03:34
  TRACK 05 AUDIO
    TITLE "1Q_t_2039-2048_05"
    INDEX 01 00:03:44
  TRACK 06 AUDIO
    TITLE "1Q_t_2039-2048_06"
    INDEX 01 00:07:38
  TRACK 07 AUDIO
    TITLE "1Q_t_2039-2048_07"
    INDEX 01 00:08:12
  TRACK 08 AUDIO
    TITLE "1Q_t_2039-2048_08"
    INDEX 01 00:09:17
  TRACK 09 AUDIO
    TITLE "1Q_t_2039-2048_09"
    INDEX 01 00:09:31
  TRACK 10 AUDIO
    TITLE "1Q_t_2039-2048_10"
    INDEX 01 00:11:34
  TRACK 11 AUDIO
    TITLE "1Q_t_2039-2048_11"
    INDEX 01 00:11:43
  TRACK 12 AUDIO
    TITLE "1Q_t_2039-2048_12"
    INDEX 01 00:15:59
  TRACK 13 AUDIO
    TITLE "1Q_t_2039-2048_13"
    INDEX 01 00:16:29
  TRACK 14 AUDIO
    TITLE "1Q_t_2039-2048_14"
    INDEX 01 00:17:38
  TRACK 15 AUDIO
    TITLE "1Q_t_2039-2048_15"
    INDEX 01 00:17:46
  TRACK 16 AUDIO
    TITLE "1Q_t_2039-2048_16"
    INDEX 01 00:19:53
  TRACK 17 AUDIO
    TITLE "1Q_t_2039-2048_17"
    INDEX 01 00:19:63
  TRACK 18 AUDIO
    TITLE "1Q_t_2039-2048_18"
    INDEX 01 00:23:62
  TRACK 19 AUDIO
    TITLE "1Q_t_2039-2048_19"
    INDEX 01 00:24:32
  TRACK 20 AUDIO
    TITLE "1Q_t_2039-2048_20"
    INDEX 01 00:25:57
  TRACK 21 AUDIO
    TITLE "1Q_t_2039-2048_21"
    INDEX 01 00:25:69
  TRACK 22 AUDIO
    TITLE "1Q_t_2039-2048_22"
    INDEX 01 00:27:01
  TRACK 23 AUDIO
    TITLE "1Q_t_2039-2048_23"
    INDEX 01 00:27:11
  TRACK 24 AUDIO
    TITLE "1Q_t_2039-2048_24"
    INDEX 01 00:31:03
  TRACK 25 AUDIO
    TITLE "1Q_t_2039-2048_25"
    INDEX 01 00:31:50
  TRACK 26 AUDIO
    TITLE "1Q_t_2039-2048_26"
    INDEX 01 00:32:73
  TRACK 27 AUDIO
    TITLE "1Q_t_2039-2048_27"
    INDEX 01 00:33:12
  TRACK 28 AUDIO
    TITLE "1Q_t_2039-2048_28"
    INDEX 01 00:35:46
  TRACK 29 AUDIO
    TITLE "1Q_t_2039-2048_29"
    INDEX 01 00:35:54
  TRACK 30 AUDIO
    TITLE "1Q_t_2039-2048_30"
    INDEX 01 00:40:10
  TRACK 31 AUDIO
    TITLE "1Q_t_2039-2048_31"
    INDEX 01 00:40:57
  TRACK 32 AUDIO
    TITLE "1Q_t_2039-2048_32"
    INDEX 01 00:42:03
  TRACK 33 AUDIO
    TITLE "1Q_t_2039-2048_33"
    INDEX 01 00:42:13
  TRACK 34 AUDIO
    TITLE "1Q_t_2039-2048_34"
    INDEX 01 00:43:14
  TRACK 35 AUDIO
    TITLE "1Q_t_2039-2048_35"
    INDEX 01 00:43:24
  TRACK 36 AUDIO
    TITLE "1Q_t_2039-2048_36"
    INDEX 01 00:48:07
  TRACK 37 AUDIO
    TITLE "1Q_t_2039-2048_37"
    INDEX 01 00:48:54
  TRACK 38 AUDIO
    TITLE "1Q_t_2039-2048_38"
    INDEX 01 00:49:70
  TRACK 39 AUDIO
    TITLE "1Q_t_2039-2048_39"
    INDEX 01 00:50:04
  TRACK 40 AUDIO
    TITLE "1Q_t_2039-2048_40"
    INDEX 01 00:52:66
  TRACK 41 AUDIO
    TITLE "1Q_t_2039-2048_41"
    INDEX 01 00:53:03
  TRACK 42 AUDIO
    TITLE "1Q_t_2039-2048_42"
    INDEX 01 00:58:45
  TRACK 43 AUDIO
    TITLE "1Q_t_2039-2048_43"
    INDEX 01 00:59:17
  TRACK 44 AUDIO
    TITLE "1Q_t_2039-2048_44"
    INDEX 01 01:00:50
  TRACK 45 AUDIO
    TITLE "1Q_t_2039-2048_45"
    INDEX 01 01:00:61
  TRACK 46 AUDIO
    TITLE "1Q_t_2039-2048_46"
    INDEX 01 01:02:68
  TRACK 47 AUDIO
    TITLE "1Q_t_2039-2048_47"
    INDEX 01 01:03:03
  TRACK 48 AUDIO
    TITLE "1Q_t_2039-2048_48"
    INDEX 01 01:08:53
  TRACK 49 AUDIO
    TITLE "1Q_t_2039-2048_49"
    INDEX 01 01:09:25
  TRACK 50 AUDIO
    TITLE "1Q_t_2039-2048_50"
    INDEX 01 01:10:34
  TRACK 51 AUDIO
    TITLE "1Q_t_2039-2048_51"
    INDEX 01 01:10:44
  TRACK 52 AUDIO
    TITLE "1Q_t_2039-2048_52"
    INDEX 01 01:13:23
  TRACK 53 AUDIO
    TITLE "1Q_t_2039-2048_53"
    INDEX 01 01:13:33
  TRACK 54 AUDIO
    TITLE "1Q_t_2039-2048_54"
    INDEX 01 01:18:06
  TRACK 55 AUDIO
    TITLE "1Q_t_2039-2048_55"
    INDEX 01 01:18:61
  TRACK 56 AUDIO
    TITLE "1Q_t_2039-2048_56"
    INDEX 01 01:20:15
  TRACK 57 AUDIO
    TITLE "1Q_t_2039-2048_57"
    INDEX 01 01:20:25
  TRACK 58 AUDIO
    TITLE "1Q_t_2039-2048_58"
    INDEX 01 01:22:30
  TRACK 59 AUDIO
    TITLE "1Q_t_2039-2048_59"
    INDEX 01 01:22:38
  TRACK 60 AUDIO
    TITLE "1Q_t_2039-2048_60"
    INDEX 01 01:26:69
